<?xml version="1.0" encoding="UTF-8" standalone="no"?>
<!DOCTYPE svg PUBLIC "-//W3C//DTD SVG 20010904//EN"
              "http://www.w3.org/TR/2001/REC-SVG-20010904/DTD/svg10.dtd">

<svg xmlns="http://www.w3.org/2000/svg"
     width="4.16667in" height="3.96667in"
     viewBox="0 0 375 357">
  <path id="Imported Path"
        fill="none" stroke="black" stroke-width="1"
        d="M 201.89,214.30
           C 201.63,213.66 199.47,210.19 199.15,209.89
             199.09,209.83 198.53,209.17 197.92,208.42
             196.79,207.03 192.32,202.40 190.84,201.09
             190.39,200.69 189.65,200.03 189.18,199.62
             188.72,199.21 187.88,198.49 187.31,198.03
             186.75,197.57 185.71,196.71 185.01,196.13
             184.31,195.55 183.49,194.89 183.19,194.66
             182.89,194.44 181.71,193.54 180.57,192.68
             179.43,191.81 178.16,190.88 177.76,190.60
             177.36,190.33 176.98,190.04 176.92,189.97
             176.86,189.90 176.56,189.71 176.24,189.55
             175.93,189.38 175.48,189.08 175.25,188.86
             175.03,188.65 174.79,188.48 174.73,188.48
             174.68,188.48 173.85,187.98 172.89,187.36
             171.43,186.43 168.71,185.02 165.91,183.75
             165.37,183.50 163.69,182.98 159.93,181.88
             159.42,181.73 158.38,181.48 157.63,181.32
             156.88,181.17 155.43,180.43 155.64,180.39
             155.84,180.35 157.45,182.40 157.00,180.71
             156.34,178.21 156.14,177.88 157.21,177.07
             158.28,176.27 161.02,177.47 161.19,177.32
             162.79,175.90 165.17,174.00 165.34,174.00
             165.47,174.00 165.60,173.87 165.63,173.73
             165.73,173.35 169.05,170.22 169.35,170.22
             169.48,170.22 169.66,170.04 169.74,169.82
             169.93,169.33 173.07,166.02 173.36,166.02
             173.47,166.02 173.56,165.91 173.56,165.78
             173.56,165.53 176.39,162.12 176.81,161.87
             176.95,161.78 177.19,161.48 177.34,161.19
             177.77,160.38 180.06,157.41 180.27,157.41
             180.37,157.41 180.53,157.19 180.62,156.92
             180.90,156.13 182.03,151.34 182.29,151.33
             182.42,151.33 184.04,153.13 184.34,153.79
             184.92,155.02 185.25,155.61 187.09,158.70
             188.75,161.50 192.24,166.38 193.67,167.91
             196.31,170.72 197.92,172.16 201.04,174.49
             203.05,176.00 204.74,177.30 204.77,177.40
             204.81,177.49 204.93,177.56 205.03,177.56
             205.25,177.56 208.24,179.69 208.34,179.92
             208.38,180.01 208.49,180.08 208.60,180.08
             208.78,180.08 211.35,181.72 211.88,182.17
             212.02,182.29 212.21,182.39 212.30,182.39
             212.39,182.39 212.80,182.61 213.20,182.87
             213.86,183.31 218.44,185.33 218.77,185.33
             218.84,185.33 219.20,185.46 219.56,185.62
             219.93,185.79 220.93,186.16 221.80,186.45
             222.66,186.74 224.45,187.37 225.78,187.84
             227.11,188.32 228.80,188.92 229.54,189.17
             229.54,189.17 230.88,189.63 230.88,189.63
             230.88,189.63 216.59,189.69 216.59,189.69
             216.59,189.69 202.30,189.74 202.30,189.74
             202.30,189.74 202.24,202.38 202.24,202.38
             202.19,213.60 202.15,214.95 201.89,214.30
             201.89,214.30 201.89,214.30 201.89,214.30 Z
           M 375.00,186.02
           C 375.00,186.02 375.00,357.00 375.00,357.00
             375.00,357.00 197.07,357.00 197.07,357.00
             197.07,357.00 197.07,186.02 197.07,186.02
             197.07,186.02 375.00,186.02 375.00,186.02 Z
           M 212.08,101.99
           C 212.08,158.32 164.60,203.98 106.04,203.98
             47.48,203.98 -0.00,158.32 -0.00,101.99
             -0.00,45.66 47.48,-0.00 106.04,-0.00
             164.60,-0.00 212.08,45.66 212.08,101.99 Z" />
</svg>
