<?xml version="1.0" encoding="UTF-8" standalone="no"?>
<!-- Created with Inkscape (http://www.inkscape.org/) -->

<svg
   width="42.616695mm"
   height="24.8521mm"
   viewBox="0 0 42.616695 24.8521"
   version="1.1"
   id="svg1"
   xmlns="http://www.w3.org/2000/svg"
   xmlns:svg="http://www.w3.org/2000/svg">
  <defs
     id="defs1">
    <filter
       height="1.4874681"
       width="1.5380605"
       y="-0.2435011"
       x="-0.27004054"
       style="color-interpolation-filters:sRGB"
       id="filter5">
      <feTurbulence
         type="fractalNoise"
         numOctaves="3"
         baseFrequency="0.25 0.4"
         seed="5"
         id="feTurbulence4" />
      <feColorMatrix
         result="result5"
         values="1 0 0 0 0 0 1 0 0 0 0 0 1 0 0 0 0 0 1 0 "
         id="feColorMatrix4" />
      <feComposite
         in="SourceGraphic"
         operator="in"
         in2="result5"
         id="feComposite4" />
      <feMorphology
         operator="dilate"
         radius="1.5"
         result="result3"
         id="feMorphology4" />
      <feTurbulence
         numOctaves="5"
         baseFrequency="0.03"
         type="fractalNoise"
         seed="7"
         id="feTurbulence5" />
      <feGaussianBlur
         stdDeviation="0.5"
         result="result91"
         id="feGaussianBlur5" />
      <feDisplacementMap
         in="result3"
         xChannelSelector="R"
         yChannelSelector="G"
         scale="27"
         result="result4"
         in2="result91"
         id="feDisplacementMap5" />
      <feComposite
         in="result4"
         k3="0.8"
         k1="1.3"
         result="result2"
         operator="arithmetic"
         in2="result4"
         id="feComposite5"
         k2="0"
         k4="0" />
      <feBlend
         in2="result2"
         mode="screen"
         in="result2"
         id="feBlend5" />
    </filter>
  </defs>
  <g
     id="layer1"
     transform="translate(-79.100397,-93.275098)">
    <g
       id="g5"
       transform="translate(-2.9629051,16.23672)">
      <g
         id="g3"
         transform="translate(9.0072315,-10.429426)">
        <path
           id="path1"
           style="fill:#233410;fill-opacity:1;stroke:#c4b9e0;stroke-width:0.0470001;stroke-dasharray:0.0470001, 0.563999;stroke-opacity:0.898551"
           d="M 85.144674,87.4913 A 12.067719,12.402934 0 0 0 73.076676,99.894161 12.067719,12.402934 0 0 0 85.144674,112.29702 12.067719,12.402934 0 0 0 97.037488,101.90541 H 115.64927 V 98.553158 H 97.13929 A 12.067719,12.402934 0 0 0 85.144674,87.4913 Z M 112.9962,99.324687 a 1.5139235,0.68292737 0 0 1 1.51361,0.682643 1.5139235,0.68292737 0 0 1 -1.51361,0.68316 1.5139235,0.68292737 0 0 1 -1.51412,-0.68316 1.5139235,0.68292737 0 0 1 1.51412,-0.682643 z" />
        <ellipse
           style="fill:#315110;fill-opacity:1;stroke:#c4b9e0;stroke-width:0.0470001;stroke-dasharray:0.0470001, 0.563999;stroke-opacity:0.898551"
           id="path2"
           cx="85.14447"
           cy="100.0615"
           rx="10.056434"
           ry="10.559256" />
      </g>
      <path
         style="fill:#1bffea;fill-opacity:1;stroke:#c4b9e0;stroke-width:0.0470001;stroke-dasharray:0.0470001, 0.563999;stroke-opacity:0.898551;filter:url(#filter5)"
         d="m 88.413088,87.583476 2.962905,-4.14807 4.859163,-0.35554 2.251808,4.02955 -4.859163,7.11097 -5.096198,-1.30368 z"
         id="path4" />
      <ellipse
         style="fill:#4bdd19;fill-opacity:1;stroke:#c4b9e0;stroke-width:0.0470001;stroke-dasharray:0.0470001, 0.563999;stroke-opacity:0.898551"
         id="path3"
         cx="91.435249"
         cy="89.835274"
         rx="2.1925497"
         ry="2.1332917" />
    </g>
  </g>
</svg>
